<svg xmlns="http://www.w3.org/2000/svg" viewBox="0 0 400 560">
  <defs>
    <linearGradient id="paperGrad" x1="0%" y1="0%" x2="100%" y2="100%">
      <stop offset="0%" style="stop-color:#f8f8f8"/>
      <stop offset="100%" style="stop-color:#e8e8e8"/>
    </linearGradient>
  </defs>

  <!-- Paper background -->
  <rect width="400" height="560" fill="url(#paperGrad)" rx="4"/>

  <!-- Border -->
  <rect x="15" y="15" width="370" height="530" fill="none" stroke="#c9a227" stroke-width="2" rx="2"/>
  <rect x="20" y="20" width="360" height="520" fill="none" stroke="#c9a227" stroke-width="1" stroke-dasharray="4,2" rx="2"/>

  <!-- Header -->
  <text x="200" y="60" font-family="Georgia, serif" font-size="24" font-weight="bold" fill="#1a1a1a" text-anchor="middle">사업자등록증</text>
  <text x="200" y="85" font-family="Arial, sans-serif" font-size="12" fill="#666" text-anchor="middle">BUSINESS REGISTRATION</text>

  <!-- Divider -->
  <line x1="60" y1="105" x2="340" y2="105" stroke="#c9a227" stroke-width="1"/>

  <!-- Content lines (placeholder) -->
  <rect x="60" y="130" width="100" height="14" fill="#ddd" rx="2"/>
  <rect x="180" y="130" width="160" height="14" fill="#eee" rx="2"/>

  <rect x="60" y="160" width="100" height="14" fill="#ddd" rx="2"/>
  <rect x="180" y="160" width="160" height="14" fill="#eee" rx="2"/>

  <rect x="60" y="190" width="100" height="14" fill="#ddd" rx="2"/>
  <rect x="180" y="190" width="160" height="14" fill="#eee" rx="2"/>

  <rect x="60" y="220" width="100" height="14" fill="#ddd" rx="2"/>
  <rect x="180" y="220" width="160" height="14" fill="#eee" rx="2"/>

  <rect x="60" y="250" width="100" height="14" fill="#ddd" rx="2"/>
  <rect x="180" y="250" width="160" height="14" fill="#eee" rx="2"/>

  <rect x="60" y="280" width="100" height="14" fill="#ddd" rx="2"/>
  <rect x="180" y="280" width="160" height="14" fill="#eee" rx="2"/>

  <!-- Divider -->
  <line x1="60" y1="320" x2="340" y2="320" stroke="#ddd" stroke-width="1"/>

  <!-- Placeholder stamp area -->
  <circle cx="300" cy="420" r="50" fill="none" stroke="#c9a227" stroke-width="2" opacity="0.3"/>
  <text x="300" y="415" font-family="Georgia, serif" font-size="14" fill="#c9a227" text-anchor="middle" opacity="0.5">SEAL</text>
  <text x="300" y="435" font-family="Georgia, serif" font-size="10" fill="#c9a227" text-anchor="middle" opacity="0.5">PLACEHOLDER</text>

  <!-- Footer note -->
  <text x="200" y="510" font-family="Arial, sans-serif" font-size="10" fill="#999" text-anchor="middle">실제 사업자등록증 이미지로 교체 필요</text>
  <text x="200" y="525" font-family="Arial, sans-serif" font-size="10" fill="#999" text-anchor="middle">Replace with actual business license image</text>
</svg>
